<svg width="64" height="72" viewBox="0 0 64 72" fill="none" xmlns="http://www.w3.org/2000/svg">
<path fill-rule="evenodd" clip-rule="evenodd" d="M30.5626 8.81213C13.7721 9.56362 0.390137 23.414 0.390137 40.39C0.390137 57.8477 14.5424 71.9999 32.0001 71.9999C49.4578 71.9999 63.61 57.8477 63.61 40.39C63.61 31.3773 59.8381 23.2456 53.7868 17.4873C53.5453 17.9408 53.2768 18.3776 52.9833 18.7957C58.6127 24.2667 62.11 31.9199 62.11 40.39C62.11 57.0192 48.6293 70.4999 32.0001 70.4999C15.3708 70.4999 1.89014 57.0192 1.89014 40.39C1.89014 24.3272 14.4679 11.2022 30.3119 10.3266C30.3649 9.81185 30.4491 9.3064 30.5626 8.81213Z" fill="#9CE861"/>
<path d="M31.215 23.2514C31.3181 23.4504 31.4954 23.6003 31.7083 23.6679C31.9211 23.7356 32.1518 23.7156 32.35 23.6124C34.2027 22.6417 35.9347 21.4537 37.5094 20.0731C39.38 21.263 41.6208 21.7175 43.8038 21.3498C45.9864 20.9822 47.9578 19.8182 49.3412 18.0802C50.7245 16.3422 51.4229 14.1523 51.3025 11.9288L50.2519 0.766952C50.2273 0.50274 50.0807 0.265371 49.8563 0.125884C49.6318 -0.0134047 49.3553 -0.0387281 49.1094 0.0574661L38.6395 4.14995C36.8232 4.95828 35.3249 6.35024 34.3797 8.10769C33.4346 9.86494 33.0957 11.8884 33.4168 13.8599C33.7376 15.8319 34.7002 17.6407 36.1529 19.003C34.7465 20.2067 33.2111 21.2484 31.5749 22.1093C31.3768 22.2126 31.2276 22.391 31.16 22.605C31.0925 22.8191 31.1123 23.0514 31.215 23.2508L31.215 23.2514ZM35.9882 16.1208C34.9481 14.3214 34.7134 12.1632 35.3421 10.1799C35.9709 8.19657 37.4043 6.57368 39.2879 5.71261L48.6816 2.04178L49.6251 12.0512V12.051C49.717 13.8054 49.1809 15.5349 48.1141 16.9255C47.0471 18.3163 45.5201 19.2764 43.8099 19.6315C42.0998 19.9867 40.3197 19.7132 38.7928 18.8608C40.7532 16.9306 42.3931 14.6963 43.6498 12.2431C43.7537 12.0435 43.7745 11.8106 43.7073 11.5957C43.6402 11.3809 43.4907 11.2019 43.2919 11.0981C43.0932 10.9946 42.8616 10.9747 42.6484 11.0433C42.4352 11.1117 42.2578 11.2629 42.1557 11.4635C40.936 13.8467 39.3293 16.0082 37.402 17.8591C36.8452 17.3557 36.3686 16.769 35.9886 16.12L35.9882 16.1208Z" fill="#9CE861"/>
<path d="M33.3055 57.8406V54.1852C35.6484 53.8529 37.7669 52.9667 39.3286 51.5265C41.5593 49.4217 42.3405 45.988 41.0015 43.551C40.109 41.668 37.9895 39.4527 33.3046 39.0093V28.708C35.4242 29.1508 37.9895 30.7015 37.9895 33.0281H40.7782C40.7782 29.2621 37.0972 26.6034 33.4159 25.9388H33.3047V21.951H30.516V25.8284C27.8387 25.9389 25.3845 26.9364 23.7117 28.7082C21.4809 30.9234 20.8117 34.2467 22.1501 36.6837C23.7117 39.6747 27.1695 41.1141 29.847 41.4464C29.9582 41.4464 30.2928 41.4464 30.5161 41.5569V51.5258C30.2928 51.5258 30.1815 51.5258 29.9582 51.4153C28.062 51.0831 24.9388 49.5323 24.9388 46.9849H22.1502C22.1502 50.7509 25.8312 53.5202 29.4003 54.1846C29.7349 54.2951 30.0695 54.2951 30.404 54.2951V57.9505L33.3054 57.9513L33.3055 57.8406ZM38.437 44.6587C39.1062 46.099 38.6603 48.0924 37.3212 49.4215C36.3175 50.4182 34.8672 51.0827 33.3056 51.3045V41.6677C35.3138 41.9999 37.5445 42.7757 38.4371 44.6586L38.437 44.6587ZM30.0711 38.5662C28.0636 38.3444 25.4975 37.3477 24.4937 35.3542C23.7125 33.914 24.2704 31.9206 25.6095 30.5915C26.8366 29.373 28.6215 28.7085 30.5178 28.5981V38.6783C30.2937 38.5663 30.1824 38.5663 30.0711 38.5663L30.0711 38.5662Z" fill="#9CE861"/>
</svg>
