<svg width="72" height="72" viewBox="0 0 72 72" fill="none" xmlns="http://www.w3.org/2000/svg">
<g clip-path="url(#clip0_1_806)">
<path d="M63.1232 9.25213H70.4276L70.4276 9.25235C70.8986 9.25235 71.3233 9.53555 71.505 9.9714C71.6851 10.4067 71.5854 10.9083 71.2523 11.2414L64.4941 17.998L64.2685 18.2236L64.4383 18.4938C67.905 24.0089 69.7317 30.3488 69.7317 36.9136C69.7317 56.0282 54.1805 71.5794 35.0659 71.5794C15.9512 71.5794 0.4 56.0282 0.4 36.9136C0.4 17.7989 15.9526 2.24718 35.0658 2.24772C41.63 2.24772 47.9689 4.07328 53.4829 7.53904L53.753 7.7088L53.9785 7.48325L60.7351 0.727753L60.7352 0.727727C61.0698 0.393058 61.5691 0.294417 62.0049 0.474861C62.4401 0.655302 62.7237 1.07988 62.7237 1.55134L62.7232 8.8521L62.7232 9.25213H63.1232ZM67.4019 36.9129V36.6246L67.3997 36.6239C67.349 30.8488 65.7775 25.2686 62.8405 20.3539L62.5773 19.9133L62.2144 20.2762L57.6821 24.8073L57.6818 24.8076C57.4641 25.0257 57.1677 25.1482 56.8585 25.1482H53.4895H52.7733L53.149 25.758C55.205 29.0953 56.3292 32.9564 56.3292 36.9128C56.3292 48.6383 46.79 58.1792 35.0656 58.1792C23.3402 58.1792 13.7992 48.6382 13.7992 36.9128C13.7992 25.1873 23.339 15.6464 35.0656 15.6464H35.0673C39.0225 15.6464 42.8798 16.7696 46.2161 18.825L46.8259 19.2006V18.4844V15.117C46.8259 14.8083 46.9485 14.5121 47.1672 14.2934L51.6984 9.76225L52.0612 9.39937L51.6207 9.13607C46.6262 6.15071 40.9429 4.57719 35.0662 4.57719C17.2355 4.57719 2.73045 19.0822 2.73045 36.9129C2.73045 54.7436 17.2369 69.2486 35.0662 69.2486C52.8955 69.2486 67.4019 54.7436 67.4019 36.9129ZM39.978 30.3523L46.5278 23.8014L46.8264 23.9106V23.3384V22.2865V22.0908L46.6718 21.9707C43.3631 19.3995 39.2785 17.9755 35.0678 17.9755H35.0661C24.6239 17.9755 16.1288 26.4707 16.1299 36.9132C16.1299 47.3554 24.6236 55.8494 35.0661 55.8494C45.5067 55.8494 53.9996 47.3556 53.9996 36.9132C53.9996 32.7008 52.5756 28.613 50.0027 25.3031L49.8826 25.1486H49.6869H48.6421H48.4765L48.3593 25.2657L41.6256 31.9994L41.3917 32.2333L41.5775 32.5069C42.4315 33.7651 42.931 35.2811 42.931 36.9128C42.931 41.2492 39.4015 44.7786 35.0658 44.7786C30.7283 44.7786 27.2 41.2492 27.2 36.9128C27.2 32.5764 30.7283 29.047 35.0658 29.047C36.6962 29.047 38.2128 29.547 39.4705 30.4005L39.7442 30.5862L39.978 30.3523ZM35.0652 42.4488C37.7661 42.4488 40.02 40.5054 40.5039 37.9434L40.6001 38.0652V36.913C40.6001 35.9988 40.3737 35.1391 39.9811 34.3803L39.7297 33.8945L39.343 34.2813L35.8873 37.737C35.6595 37.9647 35.3624 38.0784 35.0637 38.0784C34.7648 38.0784 34.4683 37.9652 34.2401 37.737L34.2399 37.7369C33.785 37.2824 33.7848 36.545 34.2401 36.0898L34.2401 36.0898L37.6958 32.6335L38.0826 32.2466L37.5967 31.9954C36.8384 31.6033 35.9782 31.377 35.0652 31.377C32.0124 31.377 29.5293 33.8601 29.5293 36.9129C29.5293 39.9658 32.0124 42.4488 35.0652 42.4488ZM61.9126 17.2822L61.9127 17.2822L61.9181 17.2765C61.924 17.2704 61.9274 17.2671 61.9331 17.2614C61.9377 17.257 61.9437 17.251 61.9536 17.2412L66.9318 12.2641L67.6148 11.5812H66.649H61.5578C60.9151 11.5812 60.3928 11.0594 60.3928 10.4163V5.32899V4.36346L59.71 5.04612L54.7439 10.0111L54.7439 10.0111L54.7401 10.015L54.7269 10.0285C54.7108 10.0451 54.7027 10.0535 54.6937 10.0618L54.6878 10.0672L54.6822 10.0729L49.2728 15.4823L49.1556 15.5994V15.7651V22.4173V22.8173H49.5556H56.2101H56.3757L56.4929 22.7002L61.9126 17.2822Z" fill="#9CE861" stroke="black" stroke-width="0.8"/>
</g>
<defs>
<clipPath id="clip0_1_806">
<rect width="72" height="72" fill="white"/>
</clipPath>
</defs>
</svg>
