<svg width="72" height="72" viewBox="0 0 72 72" fill="none" xmlns="http://www.w3.org/2000/svg">
<g clip-path="url(#clip0_1_813)">
<mask id="path-1-inside-1_1_813" fill="white">
<path d="M70.9033 30.9815L63.2909 30.003C62.5296 26.7405 61.3334 23.6955 59.4847 20.8683L64.0523 14.8874C64.3783 14.3438 64.3783 13.6912 63.9435 13.2563L58.5062 7.81908C58.0714 7.38424 57.5277 7.38424 57.0924 7.71024L51.0026 12.3861C48.1754 10.6462 45.1305 9.34118 41.868 8.57992L40.8895 0.967527C40.7806 0.423853 40.3458 -0.0109863 39.8021 -0.0109863H31.9725C31.4288 -0.0109863 30.994 0.423853 30.8851 0.967527L29.9066 8.57992C26.6441 9.34126 23.5992 10.5374 20.772 12.3861L14.79 7.70971C14.3552 7.38371 13.7026 7.38371 13.3761 7.81855L7.83006 13.3646C7.39523 13.7995 7.39523 14.3431 7.72123 14.7785L12.3971 20.8682C10.6572 23.6954 9.35217 26.7403 8.5909 30.0029L0.978514 30.9814C0.434839 31.0902 0 31.5251 0 32.0687V39.8983C0 40.442 0.434839 40.8769 0.978514 40.9857L8.5909 41.9642C9.35225 45.2268 10.5484 48.2717 12.3971 51.0989L7.72175 57.1897C7.39575 57.6245 7.39575 58.277 7.83059 58.6035L13.3767 64.1496C13.8115 64.5844 14.3552 64.5844 14.7905 64.2584L20.8803 59.5826C23.7074 61.3224 26.7524 62.6275 30.0149 63.3887L30.9934 71.0011C31.1023 71.5448 31.5371 71.9796 32.0808 71.9796H39.9104C40.4541 71.9796 40.8889 71.5448 40.9977 71.0011L41.9762 63.3887C45.2388 62.6274 48.2837 61.4312 51.1109 59.5826L57.0918 64.1501C57.3095 64.259 57.6355 64.3678 57.8532 64.3678C58.1792 64.3678 58.5057 64.259 58.7233 64.0418L64.1606 58.6045C64.5955 58.1697 64.5955 57.626 64.2695 57.1907L59.5936 51.101C61.3335 48.2738 62.6385 45.2288 63.3998 41.9663L71.0122 40.9878C71.5558 40.8789 71.9907 40.4441 71.9907 39.9004V32.0708C71.8824 31.5251 71.447 31.0902 70.9033 30.9814L70.9033 30.9815ZM69.7071 38.9199L62.3123 39.8984C61.8775 40.0073 61.4422 40.3333 61.3338 40.7686C60.6813 44.2484 59.2675 47.5109 57.3104 50.4469C57.0928 50.8818 57.0928 51.3171 57.3104 51.752L61.878 57.6241L57.7453 61.9744L51.8731 57.4068C51.5471 57.0808 51.003 57.0808 50.5681 57.4068C47.6321 59.3643 44.3696 60.7782 40.8898 61.4303C40.455 61.5391 40.1285 61.8651 40.0196 62.4088L38.9318 69.6953H32.9509L31.9724 62.3005C31.8635 61.8657 31.5375 61.4303 31.1022 61.322C27.6224 60.6695 24.3599 59.2557 21.4239 57.2986C20.989 57.0809 20.5537 57.0809 20.1188 57.2986L14.2462 61.9744L10.0052 57.7334L14.464 51.8613C14.79 51.4265 14.79 50.8828 14.464 50.4474C12.5065 47.5115 11.2014 44.3577 10.549 40.8779C10.4401 40.4431 10.1141 40.1166 9.57044 40.0078L2.28448 38.9199V32.939L9.67925 31.9605C10.1141 31.8516 10.5494 31.5256 10.6578 31.0903C11.3103 27.6105 12.7241 24.348 14.6812 21.412C14.8988 20.9771 14.8988 20.5418 14.6812 20.107L10.0053 14.2343L14.2463 9.99329L20.1185 14.4521C20.3361 14.6697 20.5533 14.6697 20.8798 14.6697C21.0975 14.6697 21.4235 14.5609 21.5323 14.4521C24.4683 12.4946 27.622 11.1895 31.1018 10.5371C31.5366 10.4282 31.8631 10.1022 31.972 9.55855L33.0598 2.27259H39.0408L40.0193 9.66736C40.1281 10.1022 40.4541 10.5375 40.8895 10.6459C44.3692 11.2984 47.6318 12.7122 50.5678 14.6693C51.0026 14.887 51.4379 14.887 51.8728 14.6693L57.7449 10.1017L61.9859 14.3427L57.4183 20.2148C57.0923 20.5408 57.0923 21.085 57.4183 21.5199C59.3758 24.4559 60.7897 27.7184 61.4418 31.1982C61.5506 31.633 61.8766 31.9595 62.4203 32.0683L69.815 33.0469L69.8161 38.92L69.7071 38.9199Z"/>
</mask>
<path d="M70.9033 30.9815L63.2909 30.003C62.5296 26.7405 61.3334 23.6955 59.4847 20.8683L64.0523 14.8874C64.3783 14.3438 64.3783 13.6912 63.9435 13.2563L58.5062 7.81908C58.0714 7.38424 57.5277 7.38424 57.0924 7.71024L51.0026 12.3861C48.1754 10.6462 45.1305 9.34118 41.868 8.57992L40.8895 0.967527C40.7806 0.423853 40.3458 -0.0109863 39.8021 -0.0109863H31.9725C31.4288 -0.0109863 30.994 0.423853 30.8851 0.967527L29.9066 8.57992C26.6441 9.34126 23.5992 10.5374 20.772 12.3861L14.79 7.70971C14.3552 7.38371 13.7026 7.38371 13.3761 7.81855L7.83006 13.3646C7.39523 13.7995 7.39523 14.3431 7.72123 14.7785L12.3971 20.8682C10.6572 23.6954 9.35217 26.7403 8.5909 30.0029L0.978514 30.9814C0.434839 31.0902 0 31.5251 0 32.0687V39.8983C0 40.442 0.434839 40.8769 0.978514 40.9857L8.5909 41.9642C9.35225 45.2268 10.5484 48.2717 12.3971 51.0989L7.72175 57.1897C7.39575 57.6245 7.39575 58.277 7.83059 58.6035L13.3767 64.1496C13.8115 64.5844 14.3552 64.5844 14.7905 64.2584L20.8803 59.5826C23.7074 61.3224 26.7524 62.6275 30.0149 63.3887L30.9934 71.0011C31.1023 71.5448 31.5371 71.9796 32.0808 71.9796H39.9104C40.4541 71.9796 40.8889 71.5448 40.9977 71.0011L41.9762 63.3887C45.2388 62.6274 48.2837 61.4312 51.1109 59.5826L57.0918 64.1501C57.3095 64.259 57.6355 64.3678 57.8532 64.3678C58.1792 64.3678 58.5057 64.259 58.7233 64.0418L64.1606 58.6045C64.5955 58.1697 64.5955 57.626 64.2695 57.1907L59.5936 51.101C61.3335 48.2738 62.6385 45.2288 63.3998 41.9663L71.0122 40.9878C71.5558 40.8789 71.9907 40.4441 71.9907 39.9004V32.0708C71.8824 31.5251 71.447 31.0902 70.9033 30.9814L70.9033 30.9815ZM69.7071 38.9199L62.3123 39.8984C61.8775 40.0073 61.4422 40.3333 61.3338 40.7686C60.6813 44.2484 59.2675 47.5109 57.3104 50.4469C57.0928 50.8818 57.0928 51.3171 57.3104 51.752L61.878 57.6241L57.7453 61.9744L51.8731 57.4068C51.5471 57.0808 51.003 57.0808 50.5681 57.4068C47.6321 59.3643 44.3696 60.7782 40.8898 61.4303C40.455 61.5391 40.1285 61.8651 40.0196 62.4088L38.9318 69.6953H32.9509L31.9724 62.3005C31.8635 61.8657 31.5375 61.4303 31.1022 61.322C27.6224 60.6695 24.3599 59.2557 21.4239 57.2986C20.989 57.0809 20.5537 57.0809 20.1188 57.2986L14.2462 61.9744L10.0052 57.7334L14.464 51.8613C14.79 51.4265 14.79 50.8828 14.464 50.4474C12.5065 47.5115 11.2014 44.3577 10.549 40.8779C10.4401 40.4431 10.1141 40.1166 9.57044 40.0078L2.28448 38.9199V32.939L9.67925 31.9605C10.1141 31.8516 10.5494 31.5256 10.6578 31.0903C11.3103 27.6105 12.7241 24.348 14.6812 21.412C14.8988 20.9771 14.8988 20.5418 14.6812 20.107L10.0053 14.2343L14.2463 9.99329L20.1185 14.4521C20.3361 14.6697 20.5533 14.6697 20.8798 14.6697C21.0975 14.6697 21.4235 14.5609 21.5323 14.4521C24.4683 12.4946 27.622 11.1895 31.1018 10.5371C31.5366 10.4282 31.8631 10.1022 31.972 9.55855L33.0598 2.27259H39.0408L40.0193 9.66736C40.1281 10.1022 40.4541 10.5375 40.8895 10.6459C44.3692 11.2984 47.6318 12.7122 50.5678 14.6693C51.0026 14.887 51.4379 14.887 51.8728 14.6693L57.7449 10.1017L61.9859 14.3427L57.4183 20.2148C57.0923 20.5408 57.0923 21.085 57.4183 21.5199C59.3758 24.4559 60.7897 27.7184 61.4418 31.1982C61.5506 31.633 61.8766 31.9595 62.4203 32.0683L69.815 33.0469L69.8161 38.92L69.7071 38.9199Z" fill="#9CE861" stroke="#080708" stroke-width="0.6" mask="url(#path-1-inside-1_1_813)"/>
<path d="M16.0284 35.9836C16.0284 24.9745 24.9868 16.0158 35.9962 16.0158C47.0052 16.0158 55.9639 24.9745 55.9639 35.9836C55.9639 46.9926 47.0052 55.9513 35.9962 55.9513C24.9871 55.9513 16.0284 46.9926 16.0284 35.9836ZM17.9033 35.9836C17.9033 45.9621 26.0174 54.0765 35.9962 54.0765C45.9747 54.0765 54.0891 45.9621 54.0891 35.9836C54.0891 26.0051 45.9747 17.8907 35.9962 17.8907C26.0177 17.8907 17.9033 26.0051 17.9033 35.9836Z" fill="#9CE861" stroke="#080708" stroke-width="0.3"/>
<path d="M35.9962 38.5941C35.4525 38.5941 35.0176 38.8118 34.6911 39.1378C34.3651 39.4638 34.1475 39.8991 34.1475 40.4428C34.1475 40.9865 34.3651 41.4213 34.6911 41.7478C35.0171 42.0738 35.4525 42.2915 35.9962 42.2915C36.5398 42.2915 36.9747 42.0738 37.3012 41.7478C37.6272 41.4218 37.8448 40.9865 37.8448 40.4428C37.8448 39.8991 37.6272 39.4643 37.3012 39.1378C36.9747 38.8113 36.5398 38.5941 35.9962 38.5941Z" fill="#9CE861"/>
<path d="M34.1475 30.1113L34.8 37.6144H37.1923L37.8448 30.1113V27.5012H34.1475L34.1475 30.1113Z" fill="#9CE861"/>
</g>
<defs>
<clipPath id="clip0_1_813">
<rect width="72" height="72" fill="white"/>
</clipPath>
</defs>
</svg>
